<?xml version='1.0' encoding='UTF-8'?>
<!DOCTYPE svg PUBLIC "-//W3C//DTD SVG 1.0//EN" "http://www.w3.org/TR/2001/REC-SVG-20010904/DTD/svg10.dtd">
<svg viewBox="0 0 1506 851" xmlns="http://www.w3.org/2000/svg" xmlns:inkspace="http://www.inkscape.org/namespaces/inkscape" xmlns:xlink="http://www.w3.org/1999/xlink">
  <defs id="defs_block">
    <filter height="1.504" id="filter_blur" inkspace:collect="always" width="1.1575" x="-0.07875" y="-0.252">
      <feGaussianBlur id="feGaussianBlur3780" inkspace:collect="always" stdDeviation="4.2" />
    </filter>
  </defs>
  <title>blockdiag</title>
  <desc>diagram {
  Webserver; Conductor; Baremetal; ConductorWebserver; IPA; iLO;
  activation = none;
  span_height = 1;
  edge_length = 250;
  default_note_color = white;
  default_fontsize = 14;

  Conductor -&gt; iLO [label = "Powers off the node"];
  Conductor -&gt; Conductor [label = "Creates the FAT32 image containing Ironic API URL and driver name"];
  Conductor -&gt; ConductorWebserver [label = "Uploads the FAT32 image"];
  Conductor -&gt; Conductor [label = "Generates URL for FAT32 image"];
  Conductor -&gt; iLO [label = "Attaches the FAT32 image URL as virtual media floppy"];
  Conductor -&gt; iLO [label = "Attaches the deploy ISO URL as virtual media CDROM"];
  Conductor -&gt; iLO [label = "Sets one time boot to CDROM"];
  Conductor -&gt; iLO [label = "Reboot the node"];
  iLO -&gt; Webserver [label = "Downloads deploy ISO"];
  Baremetal -&gt; iLO [label = "Boots deploy kernel/ramdisk from iLO virtual media CDROM"];
  IPA -&gt; Conductor [label = "Lookup node"];
  Conductor -&gt; IPA [label = "Provides node UUID"];
  IPA -&gt; Conductor [label = "Heartbeat"];
  Conductor -&gt; IPA [label = "Sends the user image HTTP(S) URL"];
  IPA -&gt; Webserver [label = "Retrieves the user image on bare metal"];
  IPA -&gt; IPA [label = "Writes user image to disk"];
  IPA -&gt; Conductor [label = "Heartbeat"];
  Conductor -&gt; Baremetal [label = "Sets boot device to disk"];
  Conductor -&gt; IPA [label = "Power off the node"];
  Conductor -&gt; Baremetal [label = "Power on the node"];
  Baremetal -&gt; Baremetal [label = "Boot user image from disk"];
}
</desc>
  <rect fill="rgb(0,0,0)" height="40" stroke="rgb(0,0,0)" style="filter:url(#filter_blur);opacity:0.7;fill-opacity:1" width="128" x="67" y="7" />
  <rect fill="rgb(0,0,0)" height="40" stroke="rgb(0,0,0)" style="filter:url(#filter_blur);opacity:0.7;fill-opacity:1" width="128" x="317" y="7" />
  <rect fill="rgb(0,0,0)" height="40" stroke="rgb(0,0,0)" style="filter:url(#filter_blur);opacity:0.7;fill-opacity:1" width="128" x="567" y="7" />
  <rect fill="rgb(0,0,0)" height="40" stroke="rgb(0,0,0)" style="filter:url(#filter_blur);opacity:0.7;fill-opacity:1" width="128" x="817" y="7" />
  <rect fill="rgb(0,0,0)" height="40" stroke="rgb(0,0,0)" style="filter:url(#filter_blur);opacity:0.7;fill-opacity:1" width="128" x="1067" y="7" />
  <rect fill="rgb(0,0,0)" height="40" stroke="rgb(0,0,0)" style="filter:url(#filter_blur);opacity:0.7;fill-opacity:1" width="128" x="1317" y="7" />
  <path d="M 128 41 L 128 858" fill="none" stroke="rgb(0,0,0)" stroke-dasharray="8 4" />
  <path d="M 378 41 L 378 858" fill="none" stroke="rgb(0,0,0)" stroke-dasharray="8 4" />
  <path d="M 628 41 L 628 858" fill="none" stroke="rgb(0,0,0)" stroke-dasharray="8 4" />
  <path d="M 878 41 L 878 858" fill="none" stroke="rgb(0,0,0)" stroke-dasharray="8 4" />
  <path d="M 1128 41 L 1128 858" fill="none" stroke="rgb(0,0,0)" stroke-dasharray="8 4" />
  <path d="M 1378 41 L 1378 858" fill="none" stroke="rgb(0,0,0)" stroke-dasharray="8 4" />
  <rect fill="rgb(255,255,255)" height="40" stroke="rgb(0,0,0)" width="128" x="64" y="1" />
  <text fill="rgb(0,0,0)" font-family="sans-serif" font-size="14" font-style="normal" font-weight="normal" text-anchor="middle" textLength="68" x="128.0" y="28">Webserver</text>
  <rect fill="rgb(255,255,255)" height="40" stroke="rgb(0,0,0)" width="128" x="314" y="1" />
  <text fill="rgb(0,0,0)" font-family="sans-serif" font-size="14" font-style="normal" font-weight="normal" text-anchor="middle" textLength="68" x="378.0" y="28">Conductor</text>
  <rect fill="rgb(255,255,255)" height="40" stroke="rgb(0,0,0)" width="128" x="564" y="1" />
  <text fill="rgb(0,0,0)" font-family="sans-serif" font-size="14" font-style="normal" font-weight="normal" text-anchor="middle" textLength="68" x="628.0" y="28">Baremetal</text>
  <rect fill="rgb(255,255,255)" height="40" stroke="rgb(0,0,0)" width="128" x="814" y="1" />
  <text fill="rgb(0,0,0)" font-family="sans-serif" font-size="14" font-style="normal" font-weight="normal" text-anchor="middle" textLength="122" x="878.0" y="20">ConductorWebserv</text>
  <text fill="rgb(0,0,0)" font-family="sans-serif" font-size="14" font-style="normal" font-weight="normal" text-anchor="middle" textLength="15" x="878.5" y="36">er</text>
  <rect fill="rgb(255,255,255)" height="40" stroke="rgb(0,0,0)" width="128" x="1064" y="1" />
  <text fill="rgb(0,0,0)" font-family="sans-serif" font-size="14" font-style="normal" font-weight="normal" text-anchor="middle" textLength="22" x="1128.0" y="28">IPA</text>
  <rect fill="rgb(255,255,255)" height="40" stroke="rgb(0,0,0)" width="128" x="1314" y="1" />
  <text fill="rgb(0,0,0)" font-family="sans-serif" font-size="14" font-style="normal" font-weight="normal" text-anchor="middle" textLength="22" x="1378.0" y="28">iLO</text>
  <path d="M 386 60 L 1370 60" fill="none" stroke="rgb(0,0,0)" />
  <polygon fill="rgb(0,0,0)" points="1362,56 1370,60 1362,64" stroke="rgb(0,0,0)" />
  <path d="M 386 153 L 503 153" fill="none" stroke="rgb(0,0,0)" />
  <path d="M 503 153 L 503 169" fill="none" stroke="rgb(0,0,0)" />
  <path d="M 503 169 L 386 169" fill="none" stroke="rgb(0,0,0)" />
  <polygon fill="rgb(0,0,0)" points="394,165 386,169 394,173" stroke="rgb(0,0,0)" />
  <path d="M 386 198 L 870 198" fill="none" stroke="rgb(0,0,0)" />
  <polygon fill="rgb(0,0,0)" points="862,194 870,198 862,202" stroke="rgb(0,0,0)" />
  <path d="M 386 243 L 503 243" fill="none" stroke="rgb(0,0,0)" />
  <path d="M 503 243 L 503 259" fill="none" stroke="rgb(0,0,0)" />
  <path d="M 503 259 L 386 259" fill="none" stroke="rgb(0,0,0)" />
  <polygon fill="rgb(0,0,0)" points="394,255 386,259 394,263" stroke="rgb(0,0,0)" />
  <path d="M 386 288 L 1370 288" fill="none" stroke="rgb(0,0,0)" />
  <polygon fill="rgb(0,0,0)" points="1362,284 1370,288 1362,292" stroke="rgb(0,0,0)" />
  <path d="M 386 317 L 1370 317" fill="none" stroke="rgb(0,0,0)" />
  <polygon fill="rgb(0,0,0)" points="1362,313 1370,317 1362,321" stroke="rgb(0,0,0)" />
  <path d="M 386 346 L 1370 346" fill="none" stroke="rgb(0,0,0)" />
  <polygon fill="rgb(0,0,0)" points="1362,342 1370,346 1362,350" stroke="rgb(0,0,0)" />
  <path d="M 386 375 L 1370 375" fill="none" stroke="rgb(0,0,0)" />
  <polygon fill="rgb(0,0,0)" points="1362,371 1370,375 1362,379" stroke="rgb(0,0,0)" />
  <path d="M 136 404 L 1370 404" fill="none" stroke="rgb(0,0,0)" />
  <polygon fill="rgb(0,0,0)" points="144,400 136,404 144,408" stroke="rgb(0,0,0)" />
  <path d="M 636 433 L 1370 433" fill="none" stroke="rgb(0,0,0)" />
  <polygon fill="rgb(0,0,0)" points="1362,429 1370,433 1362,437" stroke="rgb(0,0,0)" />
  <path d="M 386 462 L 1120 462" fill="none" stroke="rgb(0,0,0)" />
  <polygon fill="rgb(0,0,0)" points="394,458 386,462 394,466" stroke="rgb(0,0,0)" />
  <path d="M 386 491 L 1120 491" fill="none" stroke="rgb(0,0,0)" />
  <polygon fill="rgb(0,0,0)" points="1112,487 1120,491 1112,495" stroke="rgb(0,0,0)" />
  <path d="M 386 520 L 1120 520" fill="none" stroke="rgb(0,0,0)" />
  <polygon fill="rgb(0,0,0)" points="394,516 386,520 394,524" stroke="rgb(0,0,0)" />
  <path d="M 386 549 L 1120 549" fill="none" stroke="rgb(0,0,0)" />
  <polygon fill="rgb(0,0,0)" points="1112,545 1120,549 1112,553" stroke="rgb(0,0,0)" />
  <path d="M 136 578 L 1120 578" fill="none" stroke="rgb(0,0,0)" />
  <polygon fill="rgb(0,0,0)" points="144,574 136,578 144,582" stroke="rgb(0,0,0)" />
  <path d="M 1136 623 L 1253 623" fill="none" stroke="rgb(0,0,0)" />
  <path d="M 1253 623 L 1253 639" fill="none" stroke="rgb(0,0,0)" />
  <path d="M 1253 639 L 1136 639" fill="none" stroke="rgb(0,0,0)" />
  <polygon fill="rgb(0,0,0)" points="1144,635 1136,639 1144,643" stroke="rgb(0,0,0)" />
  <path d="M 386 668 L 1120 668" fill="none" stroke="rgb(0,0,0)" />
  <polygon fill="rgb(0,0,0)" points="394,664 386,668 394,672" stroke="rgb(0,0,0)" />
  <path d="M 386 697 L 620 697" fill="none" stroke="rgb(0,0,0)" />
  <polygon fill="rgb(0,0,0)" points="612,693 620,697 612,701" stroke="rgb(0,0,0)" />
  <path d="M 386 726 L 1120 726" fill="none" stroke="rgb(0,0,0)" />
  <polygon fill="rgb(0,0,0)" points="1112,722 1120,726 1112,730" stroke="rgb(0,0,0)" />
  <path d="M 386 755 L 620 755" fill="none" stroke="rgb(0,0,0)" />
  <polygon fill="rgb(0,0,0)" points="612,751 620,755 612,759" stroke="rgb(0,0,0)" />
  <path d="M 636 800 L 753 800" fill="none" stroke="rgb(0,0,0)" />
  <path d="M 753 800 L 753 816" fill="none" stroke="rgb(0,0,0)" />
  <path d="M 753 816 L 636 816" fill="none" stroke="rgb(0,0,0)" />
  <polygon fill="rgb(0,0,0)" points="644,812 636,816 644,820" stroke="rgb(0,0,0)" />
  <text fill="rgb(0,0,0)" font-family="sans-serif" font-size="14" font-style="normal" font-weight="normal" text-anchor="middle" textLength="145" x="466.5" y="56">Powers off the node</text>
  <text fill="rgb(0,0,0)" font-family="sans-serif" font-size="14" font-style="normal" font-weight="normal" text-anchor="middle" textLength="137" x="458.5" y="93">Creates the FAT32 </text>
  <text fill="rgb(0,0,0)" font-family="sans-serif" font-size="14" font-style="normal" font-weight="normal" text-anchor="middle" textLength="137" x="458.5" y="109">image containing I</text>
  <text fill="rgb(0,0,0)" font-family="sans-serif" font-size="14" font-style="normal" font-weight="normal" text-anchor="middle" textLength="137" x="458.5" y="125">ronic API URL and </text>
  <text fill="rgb(0,0,0)" font-family="sans-serif" font-size="14" font-style="normal" font-weight="normal" text-anchor="middle" textLength="84" x="432.0" y="141">driver name</text>
  <text fill="rgb(0,0,0)" font-family="sans-serif" font-size="14" font-style="normal" font-weight="normal" text-anchor="middle" textLength="175" x="481.5" y="194">Uploads the FAT32 image</text>
  <text fill="rgb(0,0,0)" font-family="sans-serif" font-size="14" font-style="normal" font-weight="normal" text-anchor="middle" textLength="137" x="458.5" y="223">Generates URL for </text>
  <text fill="rgb(0,0,0)" font-family="sans-serif" font-size="14" font-style="normal" font-weight="normal" text-anchor="middle" textLength="84" x="432.0" y="239">FAT32 image</text>
  <text fill="rgb(0,0,0)" font-family="sans-serif" font-size="14" font-style="normal" font-weight="normal" text-anchor="middle" textLength="397" x="592.5" y="284">Attaches the FAT32 image URL as virtual media floppy</text>
  <text fill="rgb(0,0,0)" font-family="sans-serif" font-size="14" font-style="normal" font-weight="normal" text-anchor="middle" textLength="381" x="584.5" y="313">Attaches the deploy ISO URL as virtual media CDROM</text>
  <text fill="rgb(0,0,0)" font-family="sans-serif" font-size="14" font-style="normal" font-weight="normal" text-anchor="middle" textLength="206" x="497.0" y="342">Sets one time boot to CDROM</text>
  <text fill="rgb(0,0,0)" font-family="sans-serif" font-size="14" font-style="normal" font-weight="normal" text-anchor="middle" textLength="114" x="451.0" y="371">Reboot the node</text>
  <text fill="rgb(0,0,0)" font-family="sans-serif" font-size="14" font-style="normal" font-weight="normal" text-anchor="middle" textLength="152" x="1290.0" y="400">Downloads deploy ISO</text>
  <text fill="rgb(0,0,0)" font-family="sans-serif" font-size="14" font-style="normal" font-weight="normal" text-anchor="middle" textLength="427" x="857.5" y="429">Boots deploy kernel/ramdisk from iLO virtual media CDROM</text>
  <text fill="rgb(0,0,0)" font-family="sans-serif" font-size="14" font-style="normal" font-weight="normal" text-anchor="middle" textLength="84" x="1074.0" y="458">Lookup node</text>
  <text fill="rgb(0,0,0)" font-family="sans-serif" font-size="14" font-style="normal" font-weight="normal" text-anchor="middle" textLength="137" x="462.5" y="487">Provides node UUID</text>
  <text fill="rgb(0,0,0)" font-family="sans-serif" font-size="14" font-style="normal" font-weight="normal" text-anchor="middle" textLength="68" x="1082.0" y="516">Heartbeat</text>
  <text fill="rgb(0,0,0)" font-family="sans-serif" font-size="14" font-style="normal" font-weight="normal" text-anchor="middle" textLength="244" x="516.0" y="545">Sends the user image HTTP(S) URL</text>
  <text fill="rgb(0,0,0)" font-family="sans-serif" font-size="14" font-style="normal" font-weight="normal" text-anchor="middle" textLength="290" x="971.0" y="574">Retrieves the user image on bare metal</text>
  <text fill="rgb(0,0,0)" font-family="sans-serif" font-size="14" font-style="normal" font-weight="normal" text-anchor="middle" textLength="137" x="1208.5" y="603">Writes user image </text>
  <text fill="rgb(0,0,0)" font-family="sans-serif" font-size="14" font-style="normal" font-weight="normal" text-anchor="middle" textLength="53" x="1166.5" y="619">to disk</text>
  <text fill="rgb(0,0,0)" font-family="sans-serif" font-size="14" font-style="normal" font-weight="normal" text-anchor="middle" textLength="68" x="1082.0" y="664">Heartbeat</text>
  <text fill="rgb(0,0,0)" font-family="sans-serif" font-size="14" font-style="normal" font-weight="normal" text-anchor="middle" textLength="183" x="485.5" y="693">Sets boot device to disk</text>
  <text fill="rgb(0,0,0)" font-family="sans-serif" font-size="14" font-style="normal" font-weight="normal" text-anchor="middle" textLength="137" x="462.5" y="722">Power off the node</text>
  <text fill="rgb(0,0,0)" font-family="sans-serif" font-size="14" font-style="normal" font-weight="normal" text-anchor="middle" textLength="129" x="458.5" y="751">Power on the node</text>
  <text fill="rgb(0,0,0)" font-family="sans-serif" font-size="14" font-style="normal" font-weight="normal" text-anchor="middle" textLength="137" x="708.5" y="780">Boot user image fr</text>
  <text fill="rgb(0,0,0)" font-family="sans-serif" font-size="14" font-style="normal" font-weight="normal" text-anchor="middle" textLength="53" x="666.5" y="796">om disk</text>
</svg>
