<?xml version="1.0" encoding="UTF-8" standalone="no"?>
<!DOCTYPE svg PUBLIC "-//W3C//DTD SVG 1.1//EN"
 "http://www.w3.org/Graphics/SVG/1.1/DTD/svg11.dtd">
<!-- Generated by graphviz version 2.30.1 (20140821.0912)
 -->
<!-- Title: Ironic states Pages: 1 -->
<svg width="1724pt" height="486pt"
 viewBox="0.00 0.00 1724.00 486.31" xmlns="http://www.w3.org/2000/svg" xmlns:xlink="http://www.w3.org/1999/xlink">
<g id="graph0" class="graph" transform="scale(1 1) rotate(0) translate(4 482.309)">
<title>Ironic states</title>
<polygon fill="white" stroke="white" points="-4,5 -4,-482.309 1721,-482.309 1721,5 -4,5"/>
<!-- enroll -->
<g id="node1" class="node"><title>enroll</title>
<ellipse fill="none" stroke="black" stroke-width="1.7" cx="27" cy="-136.309" rx="27" ry="18"/>
<text text-anchor="middle" x="27" y="-133.509" font-family="Times,serif" font-size="11.00">enroll</text>
</g>
<!-- verifying -->
<g id="node2" class="node"><title>verifying</title>
<ellipse fill="none" stroke="black" cx="210" cy="-136.309" rx="33.8507" ry="18"/>
<text text-anchor="middle" x="210" y="-133.509" font-family="Times,serif" font-size="11.00" fill="gray">verifying</text>
</g>
<!-- enroll&#45;&gt;verifying -->
<g id="edge1" class="edge"><title>enroll&#45;&gt;verifying</title>
<path fill="none" stroke="black" d="M54.319,-136.309C83.5522,-136.309 131.193,-136.309 165.889,-136.309"/>
<polygon fill="black" stroke="black" points="166.207,-139.81 176.207,-136.309 166.207,-132.81 166.207,-139.81"/>
<text text-anchor="middle" x="115" y="-139.709" font-family="Times,serif" font-size="12.00">manage (via API)</text>
</g>
<!-- manageable -->
<g id="node3" class="node"><title>manageable</title>
<ellipse fill="none" stroke="black" stroke-width="1.7" cx="346" cy="-136.309" rx="42.1875" ry="18"/>
<text text-anchor="middle" x="346" y="-133.509" font-family="Times,serif" font-size="11.00">manageable</text>
</g>
<!-- verifying&#45;&gt;manageable -->
<g id="edge11" class="edge"><title>verifying&#45;&gt;manageable</title>
<path fill="none" stroke="black" d="M243.78,-136.309C258.666,-136.309 276.633,-136.309 293.273,-136.309"/>
<polygon fill="black" stroke="black" points="293.422,-139.81 303.422,-136.309 293.422,-132.81 293.422,-139.81"/>
<text text-anchor="middle" x="274" y="-139.709" font-family="Times,serif" font-size="12.00" fill="gray">done</text>
</g>
<!-- verifying&#45;&gt;enroll -->
<g id="edge12" class="edge"><title>verifying&#45;&gt;enroll</title>
<path fill="none" stroke="black" d="M182.674,-125.744C174.862,-123.1 166.199,-120.64 158,-119.309 120.271,-113.187 109.575,-112.303 72,-119.309 67.7433,-120.103 63.368,-121.294 59.1046,-122.685"/>
<polygon fill="black" stroke="black" points="57.6647,-119.484 49.4683,-126.198 60.0622,-126.061 57.6647,-119.484"/>
<text text-anchor="middle" x="115" y="-122.709" font-family="Times,serif" font-size="12.00" fill="gray">fail</text>
</g>
<!-- cleaning -->
<g id="node4" class="node"><title>cleaning</title>
<ellipse fill="none" stroke="black" cx="551" cy="-210.309" rx="32.4445" ry="18"/>
<text text-anchor="middle" x="551" y="-207.509" font-family="Times,serif" font-size="11.00" fill="gray">cleaning</text>
</g>
<!-- manageable&#45;&gt;cleaning -->
<g id="edge2" class="edge"><title>manageable&#45;&gt;cleaning</title>
<path fill="none" stroke="black" d="M356.809,-153.884C366.852,-169.946 384.075,-192.754 406,-203.309 438.278,-218.849 479.474,-219.201 509.527,-216.49"/>
<polygon fill="black" stroke="black" points="510.082,-219.951 519.66,-215.423 509.349,-212.99 510.082,-219.951"/>
<text text-anchor="middle" x="448" y="-220.709" font-family="Times,serif" font-size="12.00">provide (via API)</text>
</g>
<!-- manageable&#45;&gt;cleaning -->
<g id="edge3" class="edge"><title>manageable&#45;&gt;cleaning</title>
<path fill="none" stroke="black" d="M371.314,-150.921C381.713,-156.68 394.166,-162.948 406,-167.309 441.915,-180.546 453.45,-174.944 490,-186.309 498.393,-188.919 507.268,-192.179 515.545,-195.447"/>
<polygon fill="black" stroke="black" points="514.338,-198.735 524.92,-199.249 516.968,-192.248 514.338,-198.735"/>
<text text-anchor="middle" x="448" y="-189.709" font-family="Times,serif" font-size="12.00">clean (via API)</text>
</g>
<!-- inspecting -->
<g id="node5" class="node"><title>inspecting</title>
<ellipse fill="none" stroke="black" cx="551" cy="-23.3094" rx="37.0671" ry="18"/>
<text text-anchor="middle" x="551" y="-20.5094" font-family="Times,serif" font-size="11.00" fill="gray">inspecting</text>
</g>
<!-- manageable&#45;&gt;inspecting -->
<g id="edge4" class="edge"><title>manageable&#45;&gt;inspecting</title>
<path fill="none" stroke="black" d="M354.248,-118.338C363.276,-98.3835 380.665,-66.8151 406,-50.3094 421.906,-39.947 468.219,-32.4895 504.072,-28.0722"/>
<polygon fill="black" stroke="black" points="504.827,-31.5072 514.345,-26.853 504.002,-24.556 504.827,-31.5072"/>
<text text-anchor="middle" x="448" y="-53.7094" font-family="Times,serif" font-size="12.00">inspect (via API)</text>
</g>
<!-- available -->
<g id="node6" class="node"><title>available</title>
<ellipse fill="none" stroke="black" stroke-width="1.7" cx="763" cy="-319.309" rx="34.054" ry="18"/>
<text text-anchor="middle" x="763" y="-316.509" font-family="Times,serif" font-size="11.00">available</text>
</g>
<!-- cleaning&#45;&gt;available -->
<g id="edge22" class="edge"><title>cleaning&#45;&gt;available</title>
<path fill="none" stroke="black" d="M564.556,-226.687C575.644,-240.05 592.974,-258.437 612,-269.309 646.352,-288.94 660.573,-279.478 698,-292.309 707.652,-295.618 717.915,-299.689 727.33,-303.657"/>
<polygon fill="black" stroke="black" points="726.205,-306.983 736.775,-307.719 728.971,-300.553 726.205,-306.983"/>
<text text-anchor="middle" x="655" y="-295.709" font-family="Times,serif" font-size="12.00" fill="gray">done</text>
</g>
<!-- clean failed -->
<g id="node13" class="node"><title>clean failed</title>
<ellipse fill="none" stroke="black" cx="964" cy="-216.309" rx="41.4846" ry="18"/>
<text text-anchor="middle" x="964" y="-213.509" font-family="Times,serif" font-size="11.00" fill="red">clean failed</text>
</g>
<!-- cleaning&#45;&gt;clean failed -->
<g id="edge23" class="edge"><title>cleaning&#45;&gt;clean failed</title>
<path fill="none" stroke="black" d="M579.519,-218.962C589.632,-221.792 601.241,-224.636 612,-226.309 740.242,-246.259 775.134,-244.727 904,-229.309 908.516,-228.769 913.194,-228.039 917.851,-227.199"/>
<polygon fill="black" stroke="black" points="918.802,-230.579 927.939,-225.214 917.451,-223.71 918.802,-230.579"/>
<text text-anchor="middle" x="763" y="-243.709" font-family="Times,serif" font-size="12.00" fill="gray">fail</text>
</g>
<!-- clean wait -->
<g id="node14" class="node"><title>clean wait</title>
<ellipse fill="none" stroke="black" cx="763" cy="-204.309" rx="37.7689" ry="18"/>
<text text-anchor="middle" x="763" y="-201.509" font-family="Times,serif" font-size="11.00" fill="gray">clean wait</text>
</g>
<!-- cleaning&#45;&gt;clean wait -->
<g id="edge24" class="edge"><title>cleaning&#45;&gt;clean wait</title>
<path fill="none" stroke="black" d="M583.619,-209.899C613.196,-209.459 658.599,-208.637 698,-207.309 703.489,-207.124 709.241,-206.899 714.951,-206.656"/>
<polygon fill="black" stroke="black" points="715.283,-210.145 725.118,-206.204 714.972,-203.152 715.283,-210.145"/>
<text text-anchor="middle" x="655" y="-212.709" font-family="Times,serif" font-size="12.00" fill="gray">wait</text>
</g>
<!-- cleaning&#45;&gt;manageable -->
<g id="edge25" class="edge"><title>cleaning&#45;&gt;manageable</title>
<path fill="none" stroke="black" d="M538.574,-193.664C527.829,-179.491 510.378,-159.94 490,-150.309 461.377,-136.782 425.988,-133.226 397.577,-133.08"/>
<polygon fill="black" stroke="black" points="397.42,-129.581 387.451,-133.168 397.481,-136.581 397.42,-129.581"/>
<text text-anchor="middle" x="448" y="-153.709" font-family="Times,serif" font-size="12.00" fill="gray">manage</text>
</g>
<!-- inspecting&#45;&gt;manageable -->
<g id="edge32" class="edge"><title>inspecting&#45;&gt;manageable</title>
<path fill="none" stroke="black" d="M521.615,-12.0674C490.699,-1.80437 440.995,8.71678 406,-13.3094 373.153,-33.9839 358.182,-78.5917 351.661,-108.02"/>
<polygon fill="black" stroke="black" points="348.174,-107.607 349.624,-118.102 355.035,-108.994 348.174,-107.607"/>
<text text-anchor="middle" x="448" y="-16.7094" font-family="Times,serif" font-size="12.00" fill="gray">done</text>
</g>
<!-- inspect failed -->
<g id="node15" class="node"><title>inspect failed</title>
<ellipse fill="none" stroke="black" cx="763" cy="-51.3094" rx="46.1069" ry="18"/>
<text text-anchor="middle" x="763" y="-48.5094" font-family="Times,serif" font-size="11.00" fill="red">inspect failed</text>
</g>
<!-- inspecting&#45;&gt;inspect failed -->
<g id="edge33" class="edge"><title>inspecting&#45;&gt;inspect failed</title>
<path fill="none" stroke="black" d="M582.246,-33.1699C591.683,-35.8963 602.191,-38.5786 612,-40.3094 643.032,-45.7849 678.14,-48.5425 706.585,-49.9279"/>
<polygon fill="black" stroke="black" points="706.598,-53.4318 716.744,-50.3787 706.909,-46.4387 706.598,-53.4318"/>
<text text-anchor="middle" x="655" y="-53.7094" font-family="Times,serif" font-size="12.00" fill="gray">fail</text>
</g>
<!-- deploying -->
<g id="node7" class="node"><title>deploying</title>
<ellipse fill="none" stroke="black" cx="964" cy="-329.309" rx="35.4579" ry="18"/>
<text text-anchor="middle" x="964" y="-326.509" font-family="Times,serif" font-size="11.00" fill="gray">deploying</text>
</g>
<!-- available&#45;&gt;deploying -->
<g id="edge5" class="edge"><title>available&#45;&gt;deploying</title>
<path fill="none" stroke="black" d="M797.308,-320.983C830.44,-322.648 881.492,-325.214 918.17,-327.057"/>
<polygon fill="black" stroke="black" points="918.418,-330.573 928.581,-327.58 918.769,-323.582 918.418,-330.573"/>
<text text-anchor="middle" x="866" y="-328.709" font-family="Times,serif" font-size="12.00">active (via API)</text>
</g>
<!-- available&#45;&gt;manageable -->
<g id="edge6" class="edge"><title>available&#45;&gt;manageable</title>
<path fill="none" stroke="black" d="M728.715,-320.4C660.462,-320.882 502.935,-312.76 406,-234.309 382.975,-215.675 366.751,-185.486 357.221,-163.534"/>
<polygon fill="black" stroke="black" points="360.373,-161.997 353.312,-154.098 353.905,-164.676 360.373,-161.997"/>
<text text-anchor="middle" x="551" y="-312.709" font-family="Times,serif" font-size="12.00">manage (via API)</text>
</g>
<!-- deploy failed -->
<g id="node11" class="node"><title>deploy failed</title>
<ellipse fill="none" stroke="black" cx="1317" cy="-286.309" rx="44.498" ry="18"/>
<text text-anchor="middle" x="1317" y="-283.509" font-family="Times,serif" font-size="11.00" fill="red">deploy failed</text>
</g>
<!-- deploying&#45;&gt;deploy failed -->
<g id="edge13" class="edge"><title>deploying&#45;&gt;deploy failed</title>
<path fill="none" stroke="black" d="M996.718,-322.089C1005.51,-320.297 1015.1,-318.539 1024,-317.309 1125.54,-303.289 1152.62,-315.417 1254,-300.309 1258.8,-299.595 1263.77,-298.713 1268.72,-297.743"/>
<polygon fill="black" stroke="black" points="1269.71,-301.112 1278.79,-295.651 1268.29,-294.258 1269.71,-301.112"/>
<text text-anchor="middle" x="1172" y="-312.709" font-family="Times,serif" font-size="12.00" fill="gray">fail</text>
</g>
<!-- wait call&#45;back -->
<g id="node12" class="node"><title>wait call&#45;back</title>
<ellipse fill="none" stroke="black" cx="1172" cy="-351.309" rx="48.2143" ry="18"/>
<text text-anchor="middle" x="1172" y="-348.509" font-family="Times,serif" font-size="11.00" fill="gray">wait call&#45;back</text>
</g>
<!-- deploying&#45;&gt;wait call&#45;back -->
<g id="edge14" class="edge"><title>deploying&#45;&gt;wait call&#45;back</title>
<path fill="none" stroke="black" d="M995.727,-337.697C1004.77,-339.867 1014.73,-341.968 1024,-343.309 1053.38,-347.56 1086.37,-349.601 1113.63,-350.561"/>
<polygon fill="black" stroke="black" points="1113.68,-354.064 1123.78,-350.879 1113.9,-347.068 1113.68,-354.064"/>
<text text-anchor="middle" x="1065" y="-352.709" font-family="Times,serif" font-size="12.00" fill="gray">wait</text>
</g>
<!-- active -->
<g id="node8" class="node"><title>active</title>
<ellipse fill="none" stroke="black" stroke-width="1.7" cx="1172" cy="-405.309" rx="27" ry="18"/>
<text text-anchor="middle" x="1172" y="-402.509" font-family="Times,serif" font-size="11.00">active</text>
</g>
<!-- deploying&#45;&gt;active -->
<g id="edge15" class="edge"><title>deploying&#45;&gt;active</title>
<path fill="none" stroke="black" d="M984.914,-343.913C995.976,-351.47 1010.25,-360.337 1024,-366.309 1060.5,-382.163 1104.98,-392.868 1135.39,-398.991"/>
<polygon fill="black" stroke="black" points="1135.04,-402.488 1145.52,-400.967 1136.38,-395.618 1135.04,-402.488"/>
<text text-anchor="middle" x="1065" y="-394.709" font-family="Times,serif" font-size="12.00" fill="gray">done</text>
</g>
<!-- active&#45;&gt;deploying -->
<g id="edge7" class="edge"><title>active&#45;&gt;deploying</title>
<path fill="none" stroke="black" d="M1148.06,-413.944C1117.76,-423.837 1063.61,-436.169 1024,-415.309 1000.6,-402.983 984.689,-376.717 975.345,-356.437"/>
<polygon fill="black" stroke="black" points="978.466,-354.835 971.281,-347.049 972.042,-357.616 978.466,-354.835"/>
<text text-anchor="middle" x="1065" y="-429.709" font-family="Times,serif" font-size="12.00">rebuild (via API)</text>
</g>
<!-- deleting -->
<g id="node9" class="node"><title>deleting</title>
<ellipse fill="none" stroke="black" cx="1512" cy="-351.309" rx="31.0408" ry="18"/>
<text text-anchor="middle" x="1512" y="-348.509" font-family="Times,serif" font-size="11.00" fill="gray">deleting</text>
</g>
<!-- active&#45;&gt;deleting -->
<g id="edge8" class="edge"><title>active&#45;&gt;deleting</title>
<path fill="none" stroke="black" d="M1199.12,-402.939C1250.06,-398.041 1366.1,-385.541 1462,-365.309 1466.09,-364.446 1470.34,-363.425 1474.55,-362.333"/>
<polygon fill="black" stroke="black" points="1475.49,-365.706 1484.21,-359.699 1473.64,-358.953 1475.49,-365.706"/>
<text text-anchor="middle" x="1317" y="-397.709" font-family="Times,serif" font-size="12.00">deleted (via API)</text>
</g>
<!-- error -->
<g id="node10" class="node"><title>error</title>
<ellipse fill="none" stroke="black" stroke-width="1.7" cx="1689" cy="-387.309" rx="27" ry="18"/>
<text text-anchor="middle" x="1689" y="-384.509" font-family="Times,serif" font-size="11.00" fill="red">error</text>
</g>
<!-- deleting&#45;&gt;error -->
<g id="edge30" class="edge"><title>deleting&#45;&gt;error</title>
<path fill="none" stroke="black" d="M1541.12,-344.722C1568.37,-339.691 1610.39,-335.56 1644,-348.309 1652.92,-351.693 1661.19,-357.802 1668.09,-364.196"/>
<polygon fill="black" stroke="black" points="1666,-367.058 1675.53,-371.687 1670.97,-362.125 1666,-367.058"/>
<text text-anchor="middle" x="1603" y="-351.709" font-family="Times,serif" font-size="12.00" fill="gray">error</text>
</g>
<!-- deleting&#45;&gt;cleaning -->
<g id="edge31" class="edge"><title>deleting&#45;&gt;cleaning</title>
<path fill="none" stroke="black" d="M1503.74,-333.842C1482.69,-286.333 1416.8,-158.309 1318,-158.309 762,-158.309 762,-158.309 762,-158.309 694.485,-158.309 676.546,-162.51 612,-182.309 602.638,-185.181 592.863,-189.242 583.986,-193.383"/>
<polygon fill="black" stroke="black" points="582.238,-190.341 574.769,-197.855 585.293,-196.639 582.238,-190.341"/>
<text text-anchor="middle" x="1065" y="-161.709" font-family="Times,serif" font-size="12.00" fill="gray">clean</text>
</g>
<!-- error&#45;&gt;deploying -->
<g id="edge9" class="edge"><title>error&#45;&gt;deploying</title>
<path fill="none" stroke="black" d="M1670.75,-400.896C1640.6,-423.243 1575.53,-465.309 1513,-465.309 1171,-465.309 1171,-465.309 1171,-465.309 1104.94,-465.309 1077.73,-481.741 1024,-443.309 995.197,-422.708 979.419,-383.758 971.593,-357.176"/>
<polygon fill="black" stroke="black" points="974.909,-356.032 968.886,-347.316 968.159,-357.886 974.909,-356.032"/>
<text text-anchor="middle" x="1317" y="-468.709" font-family="Times,serif" font-size="12.00">rebuild (via API)</text>
</g>
<!-- error&#45;&gt;deleting -->
<g id="edge10" class="edge"><title>error&#45;&gt;deleting</title>
<path fill="none" stroke="black" d="M1662.26,-383.629C1636.68,-379.781 1596.41,-373.207 1562,-365.309 1557.93,-364.374 1553.69,-363.308 1549.48,-362.189"/>
<polygon fill="black" stroke="black" points="1550.4,-358.811 1539.83,-359.525 1548.53,-365.559 1550.4,-358.811"/>
<text text-anchor="middle" x="1603" y="-383.709" font-family="Times,serif" font-size="12.00">deleted (via API)</text>
</g>
<!-- deploy failed&#45;&gt;deploying -->
<g id="edge19" class="edge"><title>deploy failed&#45;&gt;deploying</title>
<path fill="none" stroke="black" d="M1272.94,-283.399C1215.09,-280.765 1109.63,-280.481 1024,-305.309 1016.23,-307.561 1008.09,-310.485 1000.42,-313.513"/>
<polygon fill="black" stroke="black" points="998.946,-310.334 991.018,-317.361 1001.6,-316.812 998.946,-310.334"/>
<text text-anchor="middle" x="1172" y="-289.709" font-family="Times,serif" font-size="12.00">rebuild (via API)</text>
</g>
<!-- deploy failed&#45;&gt;deploying -->
<g id="edge20" class="edge"><title>deploy failed&#45;&gt;deploying</title>
<path fill="none" stroke="black" d="M1280.32,-276.116C1262.38,-271.511 1240.22,-266.596 1220,-264.309 1132.95,-254.462 1103.86,-249.275 1024,-285.309 1011.81,-290.811 999.72,-299.171 989.691,-307.132"/>
<polygon fill="black" stroke="black" points="987.276,-304.587 981.794,-313.653 991.733,-309.985 987.276,-304.587"/>
<text text-anchor="middle" x="1172" y="-267.709" font-family="Times,serif" font-size="12.00">active (via API)</text>
</g>
<!-- deploy failed&#45;&gt;deleting -->
<g id="edge21" class="edge"><title>deploy failed&#45;&gt;deleting</title>
<path fill="none" stroke="black" d="M1357.34,-293.952C1386.77,-300.32 1427.67,-310.567 1462,-324.309 1468.42,-326.88 1475.06,-330.111 1481.3,-333.434"/>
<polygon fill="black" stroke="black" points="1479.65,-336.517 1490.09,-338.305 1483.04,-330.395 1479.65,-336.517"/>
<text text-anchor="middle" x="1421" y="-327.709" font-family="Times,serif" font-size="12.00">deleted (via API)</text>
</g>
<!-- wait call&#45;back&#45;&gt;deploying -->
<g id="edge16" class="edge"><title>wait call&#45;back&#45;&gt;deploying</title>
<path fill="none" stroke="black" d="M1141.57,-337.365C1130.66,-332.9 1118.01,-328.539 1106,-326.309 1073.77,-320.325 1036.68,-321.421 1008.63,-323.828"/>
<polygon fill="black" stroke="black" points="1007.98,-320.374 998.357,-324.803 1008.64,-327.343 1007.98,-320.374"/>
<text text-anchor="middle" x="1065" y="-329.709" font-family="Times,serif" font-size="12.00" fill="gray">resume</text>
</g>
<!-- wait call&#45;back&#45;&gt;deploy failed -->
<g id="edge17" class="edge"><title>wait call&#45;back&#45;&gt;deploy failed</title>
<path fill="none" stroke="black" d="M1203.33,-337.525C1224.94,-327.699 1254.18,-314.41 1277.45,-303.832"/>
<polygon fill="black" stroke="black" points="1279.04,-306.954 1286.7,-299.63 1276.14,-300.582 1279.04,-306.954"/>
<text text-anchor="middle" x="1246" y="-323.709" font-family="Times,serif" font-size="12.00" fill="gray">fail</text>
</g>
<!-- wait call&#45;back&#45;&gt;deleting -->
<g id="edge18" class="edge"><title>wait call&#45;back&#45;&gt;deleting</title>
<path fill="none" stroke="black" d="M1220.35,-351.309C1286.99,-351.309 1407.31,-351.309 1470.2,-351.309"/>
<polygon fill="black" stroke="black" points="1470.52,-354.81 1480.52,-351.309 1470.52,-347.81 1470.52,-354.81"/>
<text text-anchor="middle" x="1317" y="-354.709" font-family="Times,serif" font-size="12.00">deleted (via API)</text>
</g>
<!-- clean failed&#45;&gt;manageable -->
<g id="edge29" class="edge"><title>clean failed&#45;&gt;manageable</title>
<path fill="none" stroke="black" d="M940.499,-201.349C929.799,-194.764 916.612,-187.387 904,-182.309 816.505,-147.084 791.626,-142.727 698,-131.309 591.548,-118.328 465.6,-125.555 397.254,-131.343"/>
<polygon fill="black" stroke="black" points="396.853,-127.864 387.195,-132.22 397.461,-134.838 396.853,-127.864"/>
<text text-anchor="middle" x="655" y="-134.709" font-family="Times,serif" font-size="12.00">manage (via API)</text>
</g>
<!-- clean wait&#45;&gt;clean failed -->
<g id="edge26" class="edge"><title>clean wait&#45;&gt;clean failed</title>
<path fill="none" stroke="black" d="M800.964,-206.538C832.338,-208.43 877.662,-211.163 912.401,-213.258"/>
<polygon fill="black" stroke="black" points="912.623,-216.778 922.815,-213.886 913.044,-209.791 912.623,-216.778"/>
<text text-anchor="middle" x="866" y="-215.709" font-family="Times,serif" font-size="12.00" fill="gray">fail</text>
</g>
<!-- clean wait&#45;&gt;clean failed -->
<g id="edge27" class="edge"><title>clean wait&#45;&gt;clean failed</title>
<path fill="none" stroke="black" d="M796.273,-195.531C824.845,-189.071 867.549,-182.634 904,-190.309 912.176,-192.031 920.601,-194.959 928.434,-198.244"/>
<polygon fill="black" stroke="black" points="927.082,-201.474 937.639,-202.371 929.945,-195.086 927.082,-201.474"/>
<text text-anchor="middle" x="866" y="-193.709" font-family="Times,serif" font-size="12.00">abort (via API)</text>
</g>
<!-- clean wait&#45;&gt;cleaning -->
<g id="edge28" class="edge"><title>clean wait&#45;&gt;cleaning</title>
<path fill="none" stroke="black" d="M729.336,-195.745C719.352,-193.512 708.29,-191.422 698,-190.309 659.999,-186.202 649.729,-184.187 612,-190.309 603.755,-191.647 595.112,-193.956 587.036,-196.541"/>
<polygon fill="black" stroke="black" points="585.865,-193.242 577.531,-199.783 588.125,-199.867 585.865,-193.242"/>
<text text-anchor="middle" x="655" y="-193.709" font-family="Times,serif" font-size="12.00" fill="gray">resume</text>
</g>
<!-- inspect failed&#45;&gt;manageable -->
<g id="edge34" class="edge"><title>inspect failed&#45;&gt;manageable</title>
<path fill="none" stroke="black" d="M716.918,-53.1014C648.112,-56.9742 513.552,-69.0572 406,-106.309 397.571,-109.229 388.829,-113.136 380.739,-117.164"/>
<polygon fill="black" stroke="black" points="378.871,-114.19 371.599,-121.895 382.089,-120.406 378.871,-114.19"/>
<text text-anchor="middle" x="551" y="-81.7094" font-family="Times,serif" font-size="12.00">manage (via API)</text>
</g>
<!-- inspect failed&#45;&gt;inspecting -->
<g id="edge35" class="edge"><title>inspect failed&#45;&gt;inspecting</title>
<path fill="none" stroke="black" d="M734.727,-37.0181C723.645,-31.9591 710.52,-26.887 698,-24.3094 665.054,-17.5267 627.033,-17.5072 598.051,-19.0618"/>
<polygon fill="black" stroke="black" points="597.573,-15.5846 587.809,-19.6961 598.006,-22.5712 597.573,-15.5846"/>
<text text-anchor="middle" x="655" y="-27.7094" font-family="Times,serif" font-size="12.00">inspect (via API)</text>
</g>
</g>
</svg>
