<?xml version="1.0" encoding="UTF-8" standalone="no"?>
<!DOCTYPE svg PUBLIC "-//W3C//DTD SVG 1.1//EN"
 "http://www.w3.org/Graphics/SVG/1.1/DTD/svg11.dtd">
<!-- Generated by graphviz version 2.36.0 (20140111.2315)
 -->
<!-- Title: Ironic states Pages: 1 -->
<svg width="1724pt" height="503pt"
 viewBox="0.00 0.00 1724.00 502.55" xmlns="http://www.w3.org/2000/svg" xmlns:xlink="http://www.w3.org/1999/xlink">
<g id="graph0" class="graph" transform="scale(1 1) rotate(0) translate(4 498.55)">
<title>Ironic states</title>
<polygon fill="white" stroke="none" points="-4,4 -4,-498.55 1720,-498.55 1720,4 -4,4"/>
<!-- enroll -->
<g id="node1" class="node"><title>enroll</title>
<ellipse fill="none" stroke="black" stroke-width="1.7" cx="27" cy="-187.55" rx="27" ry="18"/>
<text text-anchor="middle" x="27" y="-184.75" font-family="Times,serif" font-size="11.00">enroll</text>
</g>
<!-- verifying -->
<g id="node2" class="node"><title>verifying</title>
<ellipse fill="none" stroke="black" cx="210" cy="-187.55" rx="33.8507" ry="18"/>
<text text-anchor="middle" x="210" y="-184.75" font-family="Times,serif" font-size="11.00" fill="gray">verifying</text>
</g>
<!-- enroll&#45;&gt;verifying -->
<g id="edge1" class="edge"><title>enroll&#45;&gt;verifying</title>
<path fill="none" stroke="black" d="M54.319,-187.55C83.5522,-187.55 131.193,-187.55 165.889,-187.55"/>
<polygon fill="black" stroke="black" points="166.207,-191.05 176.207,-187.55 166.207,-184.05 166.207,-191.05"/>
<text text-anchor="middle" x="115" y="-190.95" font-family="Times,serif" font-size="12.00">manage (via API)</text>
</g>
<!-- verifying&#45;&gt;enroll -->
<g id="edge13" class="edge"><title>verifying&#45;&gt;enroll</title>
<path fill="none" stroke="black" d="M182.674,-176.984C174.862,-174.341 166.199,-171.881 158,-170.55 120.271,-164.428 109.575,-163.544 72,-170.55 67.7433,-171.344 63.368,-172.535 59.1046,-173.925"/>
<polygon fill="black" stroke="black" points="57.6647,-170.725 49.4683,-177.438 60.0622,-177.301 57.6647,-170.725"/>
<text text-anchor="middle" x="115" y="-173.95" font-family="Times,serif" font-size="12.00" fill="gray">fail</text>
</g>
<!-- manageable -->
<g id="node3" class="node"><title>manageable</title>
<ellipse fill="none" stroke="black" stroke-width="1.7" cx="346" cy="-187.55" rx="42.1875" ry="18"/>
<text text-anchor="middle" x="346" y="-184.75" font-family="Times,serif" font-size="11.00">manageable</text>
</g>
<!-- verifying&#45;&gt;manageable -->
<g id="edge12" class="edge"><title>verifying&#45;&gt;manageable</title>
<path fill="none" stroke="black" d="M243.78,-187.55C258.666,-187.55 276.633,-187.55 293.273,-187.55"/>
<polygon fill="black" stroke="black" points="293.422,-191.05 303.422,-187.55 293.422,-184.05 293.422,-191.05"/>
<text text-anchor="middle" x="274" y="-190.95" font-family="Times,serif" font-size="12.00" fill="gray">done</text>
</g>
<!-- cleaning -->
<g id="node4" class="node"><title>cleaning</title>
<ellipse fill="none" stroke="black" cx="551" cy="-212.55" rx="32.4445" ry="18"/>
<text text-anchor="middle" x="551" y="-209.75" font-family="Times,serif" font-size="11.00" fill="gray">cleaning</text>
</g>
<!-- manageable&#45;&gt;cleaning -->
<g id="edge2" class="edge"><title>manageable&#45;&gt;cleaning</title>
<path fill="none" stroke="black" d="M368.881,-202.811C379.556,-209.344 392.898,-216.226 406,-219.55 440.464,-228.294 481.019,-225.179 510.294,-220.673"/>
<polygon fill="black" stroke="black" points="511.247,-224.063 520.537,-218.969 510.098,-217.158 511.247,-224.063"/>
<text text-anchor="middle" x="448" y="-227.95" font-family="Times,serif" font-size="12.00">provide (via API)</text>
</g>
<!-- manageable&#45;&gt;cleaning -->
<g id="edge3" class="edge"><title>manageable&#45;&gt;cleaning</title>
<path fill="none" stroke="black" d="M387.452,-191.134C416.131,-193.836 455.493,-197.869 490,-202.55 496.387,-203.416 503.138,-204.438 509.718,-205.492"/>
<polygon fill="black" stroke="black" points="509.403,-208.987 519.838,-207.156 510.539,-202.08 509.403,-208.987"/>
<text text-anchor="middle" x="448" y="-205.95" font-family="Times,serif" font-size="12.00">clean (via API)</text>
</g>
<!-- inspecting -->
<g id="node5" class="node"><title>inspecting</title>
<ellipse fill="none" stroke="black" cx="551" cy="-25.55" rx="37.0671" ry="18"/>
<text text-anchor="middle" x="551" y="-22.75" font-family="Times,serif" font-size="11.00" fill="gray">inspecting</text>
</g>
<!-- manageable&#45;&gt;inspecting -->
<g id="edge4" class="edge"><title>manageable&#45;&gt;inspecting</title>
<path fill="none" stroke="black" d="M349.471,-169.433C354.494,-140.014 368.771,-82.1703 406,-52.55 420.855,-40.731 467.343,-33.5154 503.525,-29.5531"/>
<polygon fill="black" stroke="black" points="504.314,-32.99 513.898,-28.4735 503.589,-26.0276 504.314,-32.99"/>
<text text-anchor="middle" x="448" y="-55.95" font-family="Times,serif" font-size="12.00">inspect (via API)</text>
</g>
<!-- adopting -->
<g id="node6" class="node"><title>adopting</title>
<ellipse fill="none" stroke="black" cx="551" cy="-412.55" rx="32.4445" ry="18"/>
<text text-anchor="middle" x="551" y="-409.75" font-family="Times,serif" font-size="11.00" fill="gray">adopting</text>
</g>
<!-- manageable&#45;&gt;adopting -->
<g id="edge5" class="edge"><title>manageable&#45;&gt;adopting</title>
<path fill="none" stroke="black" d="M347.291,-205.559C348.896,-242.554 357.935,-327.494 406,-373.55 433.219,-399.631 476.034,-408.662 507.913,-411.6"/>
<polygon fill="black" stroke="black" points="508.033,-415.119 518.267,-412.379 508.557,-408.139 508.033,-415.119"/>
<text text-anchor="middle" x="448" y="-411.95" font-family="Times,serif" font-size="12.00">adopt (via API)</text>
</g>
<!-- cleaning&#45;&gt;manageable -->
<g id="edge26" class="edge"><title>cleaning&#45;&gt;manageable</title>
<path fill="none" stroke="black" d="M531.764,-198.035C520.454,-189.983 505.219,-180.765 490,-176.55 458.156,-167.73 420.901,-171.01 392.401,-176.215"/>
<polygon fill="black" stroke="black" points="391.458,-172.833 382.324,-178.201 392.812,-179.701 391.458,-172.833"/>
<text text-anchor="middle" x="448" y="-179.95" font-family="Times,serif" font-size="12.00" fill="gray">manage</text>
</g>
<!-- available -->
<g id="node7" class="node"><title>available</title>
<ellipse fill="none" stroke="black" stroke-width="1.7" cx="763" cy="-313.55" rx="34.054" ry="18"/>
<text text-anchor="middle" x="763" y="-310.75" font-family="Times,serif" font-size="11.00">available</text>
</g>
<!-- cleaning&#45;&gt;available -->
<g id="edge23" class="edge"><title>cleaning&#45;&gt;available</title>
<path fill="none" stroke="black" d="M566.869,-228.52C578.227,-239.83 594.807,-254.535 612,-263.55 647.041,-281.923 660.573,-273.719 698,-286.55 707.652,-289.859 717.915,-293.93 727.33,-297.898"/>
<polygon fill="black" stroke="black" points="726.205,-301.224 736.775,-301.959 728.971,-294.793 726.205,-301.224"/>
<text text-anchor="middle" x="655" y="-289.95" font-family="Times,serif" font-size="12.00" fill="gray">done</text>
</g>
<!-- clean failed -->
<g id="node14" class="node"><title>clean failed</title>
<ellipse fill="none" stroke="black" cx="964" cy="-214.55" rx="41.4846" ry="18"/>
<text text-anchor="middle" x="964" y="-211.75" font-family="Times,serif" font-size="11.00" fill="red">clean failed</text>
</g>
<!-- cleaning&#45;&gt;clean failed -->
<g id="edge24" class="edge"><title>cleaning&#45;&gt;clean failed</title>
<path fill="none" stroke="black" d="M580.467,-220.482C590.368,-222.895 601.598,-225.251 612,-226.55 740.778,-242.631 775.06,-242.281 904,-227.55 908.518,-227.034 913.199,-226.32 917.857,-225.489"/>
<polygon fill="black" stroke="black" points="918.803,-228.87 927.946,-223.517 917.46,-222 918.803,-228.87"/>
<text text-anchor="middle" x="763" y="-241.95" font-family="Times,serif" font-size="12.00" fill="gray">fail</text>
</g>
<!-- clean wait -->
<g id="node15" class="node"><title>clean wait</title>
<ellipse fill="none" stroke="black" cx="763" cy="-201.55" rx="37.7689" ry="18"/>
<text text-anchor="middle" x="763" y="-198.75" font-family="Times,serif" font-size="11.00" fill="gray">clean wait</text>
</g>
<!-- cleaning&#45;&gt;clean wait -->
<g id="edge25" class="edge"><title>cleaning&#45;&gt;clean wait</title>
<path fill="none" stroke="black" d="M583.439,-210.903C618.279,-209.078 674.834,-206.116 714.953,-204.014"/>
<polygon fill="black" stroke="black" points="715.228,-207.505 725.031,-203.486 714.862,-200.514 715.228,-207.505"/>
<text text-anchor="middle" x="655" y="-212.95" font-family="Times,serif" font-size="12.00" fill="gray">wait</text>
</g>
<!-- inspecting&#45;&gt;manageable -->
<g id="edge33" class="edge"><title>inspecting&#45;&gt;manageable</title>
<path fill="none" stroke="black" d="M522.516,-13.7533C491.262,-2.36256 440.155,9.88802 406,-14.55 359.666,-47.703 349.303,-119.445 347.246,-159.343"/>
<polygon fill="black" stroke="black" points="343.743,-159.336 346.868,-169.459 350.739,-159.597 343.743,-159.336"/>
<text text-anchor="middle" x="448" y="-17.95" font-family="Times,serif" font-size="12.00" fill="gray">done</text>
</g>
<!-- inspect failed -->
<g id="node16" class="node"><title>inspect failed</title>
<ellipse fill="none" stroke="black" cx="763" cy="-53.55" rx="46.1069" ry="18"/>
<text text-anchor="middle" x="763" y="-50.75" font-family="Times,serif" font-size="11.00" fill="red">inspect failed</text>
</g>
<!-- inspecting&#45;&gt;inspect failed -->
<g id="edge34" class="edge"><title>inspecting&#45;&gt;inspect failed</title>
<path fill="none" stroke="black" d="M582.246,-35.4105C591.683,-38.1369 602.191,-40.8192 612,-42.55 643.032,-48.0255 678.14,-50.7831 706.585,-52.1685"/>
<polygon fill="black" stroke="black" points="706.598,-55.6724 716.744,-52.6193 706.909,-48.6793 706.598,-55.6724"/>
<text text-anchor="middle" x="655" y="-55.95" font-family="Times,serif" font-size="12.00" fill="gray">fail</text>
</g>
<!-- active -->
<g id="node9" class="node"><title>active</title>
<ellipse fill="none" stroke="black" stroke-width="1.7" cx="1172" cy="-410.55" rx="27" ry="18"/>
<text text-anchor="middle" x="1172" y="-407.75" font-family="Times,serif" font-size="11.00">active</text>
</g>
<!-- adopting&#45;&gt;active -->
<g id="edge37" class="edge"><title>adopting&#45;&gt;active</title>
<path fill="none" stroke="black" d="M582.779,-408.379C592.145,-407.267 602.478,-406.195 612,-405.55 658.125,-402.423 669.776,-404.37 716,-403.55 852.885,-401.123 887.098,-399.661 1024,-398.55 1060.44,-398.254 1069.71,-395.228 1106,-398.55 1115.82,-399.449 1126.37,-401.096 1136.05,-402.888"/>
<polygon fill="black" stroke="black" points="1135.66,-406.377 1146.15,-404.861 1137,-399.508 1135.66,-406.377"/>
<text text-anchor="middle" x="866" y="-403.95" font-family="Times,serif" font-size="12.00" fill="gray">done</text>
</g>
<!-- adopt failed -->
<g id="node17" class="node"><title>adopt failed</title>
<ellipse fill="none" stroke="black" cx="763" cy="-430.55" rx="41.4846" ry="18"/>
<text text-anchor="middle" x="763" y="-427.75" font-family="Times,serif" font-size="11.00" fill="red">adopt failed</text>
</g>
<!-- adopting&#45;&gt;adopt failed -->
<g id="edge38" class="edge"><title>adopting&#45;&gt;adopt failed</title>
<path fill="none" stroke="black" d="M578.165,-422.754C588.531,-426.286 600.662,-429.798 612,-431.55 645.152,-436.674 682.919,-436.388 712.263,-434.839"/>
<polygon fill="black" stroke="black" points="712.495,-438.332 722.27,-434.246 712.081,-431.344 712.495,-438.332"/>
<text text-anchor="middle" x="655" y="-438.95" font-family="Times,serif" font-size="12.00" fill="gray">fail</text>
</g>
<!-- available&#45;&gt;manageable -->
<g id="edge7" class="edge"><title>available&#45;&gt;manageable</title>
<path fill="none" stroke="black" d="M728.535,-313.4C662.605,-311.739 513.031,-301.112 406,-241.55 392.136,-233.835 378.894,-222.248 368.48,-211.784"/>
<polygon fill="black" stroke="black" points="370.878,-209.227 361.43,-204.434 365.826,-214.073 370.878,-209.227"/>
<text text-anchor="middle" x="551" y="-303.95" font-family="Times,serif" font-size="12.00">manage (via API)</text>
</g>
<!-- deploying -->
<g id="node8" class="node"><title>deploying</title>
<ellipse fill="none" stroke="black" cx="964" cy="-320.55" rx="35.4579" ry="18"/>
<text text-anchor="middle" x="964" y="-317.75" font-family="Times,serif" font-size="11.00" fill="gray">deploying</text>
</g>
<!-- available&#45;&gt;deploying -->
<g id="edge6" class="edge"><title>available&#45;&gt;deploying</title>
<path fill="none" stroke="black" d="M797.308,-314.722C830.44,-315.887 881.492,-317.683 918.17,-318.973"/>
<polygon fill="black" stroke="black" points="918.464,-322.486 928.581,-319.339 918.71,-315.49 918.464,-322.486"/>
<text text-anchor="middle" x="866" y="-320.95" font-family="Times,serif" font-size="12.00">active (via API)</text>
</g>
<!-- deploying&#45;&gt;active -->
<g id="edge16" class="edge"><title>deploying&#45;&gt;active</title>
<path fill="none" stroke="black" d="M984.128,-335.45C995.3,-343.648 1009.93,-353.547 1024,-360.55 1060.97,-378.95 1106.33,-393.232 1136.8,-401.737"/>
<polygon fill="black" stroke="black" points="1135.96,-405.136 1146.53,-404.397 1137.81,-398.383 1135.96,-405.136"/>
<text text-anchor="middle" x="1065" y="-393.95" font-family="Times,serif" font-size="12.00" fill="gray">done</text>
</g>
<!-- deploy failed -->
<g id="node12" class="node"><title>deploy failed</title>
<ellipse fill="none" stroke="black" cx="1317" cy="-283.55" rx="44.498" ry="18"/>
<text text-anchor="middle" x="1317" y="-280.75" font-family="Times,serif" font-size="11.00" fill="red">deploy failed</text>
</g>
<!-- deploying&#45;&gt;deploy failed -->
<g id="edge14" class="edge"><title>deploying&#45;&gt;deploy failed</title>
<path fill="none" stroke="black" d="M996.054,-312.65C1005.02,-310.659 1014.85,-308.748 1024,-307.55 1125.45,-294.27 1152.58,-311.095 1254,-297.55 1258.81,-296.908 1263.79,-296.074 1268.75,-295.133"/>
<polygon fill="black" stroke="black" points="1269.72,-298.506 1278.82,-293.078 1268.32,-291.648 1269.72,-298.506"/>
<text text-anchor="middle" x="1172" y="-305.95" font-family="Times,serif" font-size="12.00" fill="gray">fail</text>
</g>
<!-- wait call&#45;back -->
<g id="node13" class="node"><title>wait call&#45;back</title>
<ellipse fill="none" stroke="black" cx="1172" cy="-348.55" rx="48.2143" ry="18"/>
<text text-anchor="middle" x="1172" y="-345.75" font-family="Times,serif" font-size="11.00" fill="gray">wait call&#45;back</text>
</g>
<!-- deploying&#45;&gt;wait call&#45;back -->
<g id="edge15" class="edge"><title>deploying&#45;&gt;wait call&#45;back</title>
<path fill="none" stroke="black" d="M995.764,-328.698C1004.81,-330.863 1014.76,-333.021 1024,-334.55 1053.6,-339.448 1086.87,-342.794 1114.25,-344.983"/>
<polygon fill="black" stroke="black" points="1114.2,-348.489 1124.44,-345.766 1114.74,-341.51 1114.2,-348.489"/>
<text text-anchor="middle" x="1065" y="-346.95" font-family="Times,serif" font-size="12.00" fill="gray">wait</text>
</g>
<!-- active&#45;&gt;deploying -->
<g id="edge8" class="edge"><title>active&#45;&gt;deploying</title>
<path fill="none" stroke="black" d="M1150.34,-421.324C1120.29,-435.36 1063.77,-455.453 1024,-431.55 994.275,-413.687 978.719,-375.231 971.196,-348.631"/>
<polygon fill="black" stroke="black" points="974.525,-347.53 968.61,-338.74 967.753,-349.3 974.525,-347.53"/>
<text text-anchor="middle" x="1065" y="-445.95" font-family="Times,serif" font-size="12.00">rebuild (via API)</text>
</g>
<!-- deleting -->
<g id="node10" class="node"><title>deleting</title>
<ellipse fill="none" stroke="black" cx="1512" cy="-348.55" rx="31.0408" ry="18"/>
<text text-anchor="middle" x="1512" y="-345.75" font-family="Times,serif" font-size="11.00" fill="gray">deleting</text>
</g>
<!-- active&#45;&gt;deleting -->
<g id="edge9" class="edge"><title>active&#45;&gt;deleting</title>
<path fill="none" stroke="black" d="M1198.7,-407.281C1249.41,-400.613 1365.74,-384.222 1462,-362.55 1466.08,-361.632 1470.32,-360.576 1474.53,-359.464"/>
<polygon fill="black" stroke="black" points="1475.47,-362.834 1484.18,-356.807 1473.61,-356.085 1475.47,-362.834"/>
<text text-anchor="middle" x="1317" y="-399.95" font-family="Times,serif" font-size="12.00">deleted (via API)</text>
</g>
<!-- deleting&#45;&gt;cleaning -->
<g id="edge32" class="edge"><title>deleting&#45;&gt;cleaning</title>
<path fill="none" stroke="black" d="M1503.74,-331.082C1482.69,-283.573 1416.8,-155.55 1318,-155.55 762,-155.55 762,-155.55 762,-155.55 694.339,-155.55 676.135,-159.993 612,-181.55 601.998,-184.912 591.612,-189.742 582.35,-194.591"/>
<polygon fill="black" stroke="black" points="580.63,-191.542 573.517,-199.394 583.974,-197.692 580.63,-191.542"/>
<text text-anchor="middle" x="1065" y="-158.95" font-family="Times,serif" font-size="12.00" fill="gray">clean</text>
</g>
<!-- error -->
<g id="node11" class="node"><title>error</title>
<ellipse fill="none" stroke="black" stroke-width="1.7" cx="1689" cy="-384.55" rx="27" ry="18"/>
<text text-anchor="middle" x="1689" y="-381.75" font-family="Times,serif" font-size="11.00" fill="red">error</text>
</g>
<!-- deleting&#45;&gt;error -->
<g id="edge31" class="edge"><title>deleting&#45;&gt;error</title>
<path fill="none" stroke="black" d="M1541.12,-341.962C1568.37,-336.931 1610.39,-332.8 1644,-345.55 1652.92,-348.933 1661.19,-355.042 1668.09,-361.437"/>
<polygon fill="black" stroke="black" points="1666,-364.298 1675.53,-368.928 1670.97,-359.366 1666,-364.298"/>
<text text-anchor="middle" x="1603" y="-348.95" font-family="Times,serif" font-size="12.00" fill="gray">error</text>
</g>
<!-- error&#45;&gt;deploying -->
<g id="edge10" class="edge"><title>error&#45;&gt;deploying</title>
<path fill="none" stroke="black" d="M1673.16,-399.706C1644.78,-426.988 1579.69,-481.55 1513,-481.55 1171,-481.55 1171,-481.55 1171,-481.55 1104.94,-481.55 1076.23,-499.999 1024,-459.55 989.177,-432.581 974.65,-381.143 968.777,-348.968"/>
<polygon fill="black" stroke="black" points="972.19,-348.151 967.101,-338.858 965.284,-349.296 972.19,-348.151"/>
<text text-anchor="middle" x="1317" y="-484.95" font-family="Times,serif" font-size="12.00">rebuild (via API)</text>
</g>
<!-- error&#45;&gt;deleting -->
<g id="edge11" class="edge"><title>error&#45;&gt;deleting</title>
<path fill="none" stroke="black" d="M1662.26,-380.869C1636.68,-377.021 1596.41,-370.447 1562,-362.55 1557.93,-361.615 1553.69,-360.548 1549.48,-359.43"/>
<polygon fill="black" stroke="black" points="1550.4,-356.052 1539.83,-356.766 1548.53,-362.8 1550.4,-356.052"/>
<text text-anchor="middle" x="1603" y="-380.95" font-family="Times,serif" font-size="12.00">deleted (via API)</text>
</g>
<!-- deploy failed&#45;&gt;deploying -->
<g id="edge20" class="edge"><title>deploy failed&#45;&gt;deploying</title>
<path fill="none" stroke="black" d="M1273.1,-280.157C1215.43,-276.818 1110.18,-275.048 1024,-297.55 1016.3,-299.561 1008.23,-302.276 1000.62,-305.134"/>
<polygon fill="black" stroke="black" points="999.326,-301.882 991.292,-308.789 1001.88,-308.4 999.326,-301.882"/>
<text text-anchor="middle" x="1172" y="-283.95" font-family="Times,serif" font-size="12.00">rebuild (via API)</text>
</g>
<!-- deploy failed&#45;&gt;deploying -->
<g id="edge21" class="edge"><title>deploy failed&#45;&gt;deploying</title>
<path fill="none" stroke="black" d="M1280.8,-273.016C1262.79,-268.167 1240.42,-262.963 1220,-260.55 1133.13,-250.288 1104.63,-244.616 1024,-278.55 1012.17,-283.53 1000.39,-291.217 990.505,-298.661"/>
<polygon fill="black" stroke="black" points="988.053,-296.136 982.351,-305.066 992.377,-301.641 988.053,-296.136"/>
<text text-anchor="middle" x="1172" y="-263.95" font-family="Times,serif" font-size="12.00">active (via API)</text>
</g>
<!-- deploy failed&#45;&gt;deleting -->
<g id="edge22" class="edge"><title>deploy failed&#45;&gt;deleting</title>
<path fill="none" stroke="black" d="M1357.34,-291.193C1386.77,-297.561 1427.67,-307.808 1462,-321.55 1468.42,-324.121 1475.06,-327.351 1481.3,-330.675"/>
<polygon fill="black" stroke="black" points="1479.65,-333.758 1490.09,-335.545 1483.04,-327.636 1479.65,-333.758"/>
<text text-anchor="middle" x="1421" y="-324.95" font-family="Times,serif" font-size="12.00">deleted (via API)</text>
</g>
<!-- wait call&#45;back&#45;&gt;deploying -->
<g id="edge17" class="edge"><title>wait call&#45;back&#45;&gt;deploying</title>
<path fill="none" stroke="black" d="M1145.71,-333.256C1134.06,-327.073 1119.78,-320.668 1106,-317.55 1073.78,-310.26 1036.35,-311.488 1008.16,-314.28"/>
<polygon fill="black" stroke="black" points="1007.78,-310.801 998.217,-315.366 1008.54,-317.759 1007.78,-310.801"/>
<text text-anchor="middle" x="1065" y="-320.95" font-family="Times,serif" font-size="12.00" fill="gray">resume</text>
</g>
<!-- wait call&#45;back&#45;&gt;deleting -->
<g id="edge19" class="edge"><title>wait call&#45;back&#45;&gt;deleting</title>
<path fill="none" stroke="black" d="M1220.35,-348.55C1286.99,-348.55 1407.31,-348.55 1470.2,-348.55"/>
<polygon fill="black" stroke="black" points="1470.52,-352.05 1480.52,-348.55 1470.52,-345.05 1470.52,-352.05"/>
<text text-anchor="middle" x="1317" y="-351.95" font-family="Times,serif" font-size="12.00">deleted (via API)</text>
</g>
<!-- wait call&#45;back&#45;&gt;deploy failed -->
<g id="edge18" class="edge"><title>wait call&#45;back&#45;&gt;deploy failed</title>
<path fill="none" stroke="black" d="M1203.33,-334.765C1224.94,-324.939 1254.18,-311.651 1277.45,-301.072"/>
<polygon fill="black" stroke="black" points="1279.04,-304.195 1286.7,-296.87 1276.14,-297.822 1279.04,-304.195"/>
<text text-anchor="middle" x="1246" y="-320.95" font-family="Times,serif" font-size="12.00" fill="gray">fail</text>
</g>
<!-- clean failed&#45;&gt;manageable -->
<g id="edge30" class="edge"><title>clean failed&#45;&gt;manageable</title>
<path fill="none" stroke="black" d="M939.234,-199.96C928.717,-193.956 916.028,-187.308 904,-182.55 815.986,-147.736 791.872,-140.649 698,-128.55 585.203,-114.012 453.168,-150.875 387.862,-172.744"/>
<polygon fill="black" stroke="black" points="386.682,-169.448 378.343,-175.984 388.938,-176.074 386.682,-169.448"/>
<text text-anchor="middle" x="655" y="-131.95" font-family="Times,serif" font-size="12.00">manage (via API)</text>
</g>
<!-- clean wait&#45;&gt;cleaning -->
<g id="edge29" class="edge"><title>clean wait&#45;&gt;cleaning</title>
<path fill="none" stroke="black" d="M728.957,-193.498C698.382,-187.27 651.785,-180.888 612,-188.55 602.955,-190.292 593.541,-193.385 584.924,-196.783"/>
<polygon fill="black" stroke="black" points="583.465,-193.6 575.596,-200.694 586.172,-200.055 583.465,-193.6"/>
<text text-anchor="middle" x="655" y="-191.95" font-family="Times,serif" font-size="12.00" fill="gray">resume</text>
</g>
<!-- clean wait&#45;&gt;clean failed -->
<g id="edge27" class="edge"><title>clean wait&#45;&gt;clean failed</title>
<path fill="none" stroke="black" d="M800.964,-203.965C832.338,-206.014 877.662,-208.975 912.401,-211.245"/>
<polygon fill="black" stroke="black" points="912.609,-214.765 922.815,-211.925 913.065,-207.78 912.609,-214.765"/>
<text text-anchor="middle" x="866" y="-213.95" font-family="Times,serif" font-size="12.00" fill="gray">fail</text>
</g>
<!-- clean wait&#45;&gt;clean failed -->
<g id="edge28" class="edge"><title>clean wait&#45;&gt;clean failed</title>
<path fill="none" stroke="black" d="M797.117,-193.449C825.68,-187.71 867.901,-182.218 904,-189.55 911.895,-191.154 920.046,-193.851 927.674,-196.894"/>
<polygon fill="black" stroke="black" points="926.429,-200.168 937,-200.879 929.179,-193.731 926.429,-200.168"/>
<text text-anchor="middle" x="866" y="-192.95" font-family="Times,serif" font-size="12.00">abort (via API)</text>
</g>
<!-- inspect failed&#45;&gt;manageable -->
<g id="edge35" class="edge"><title>inspect failed&#45;&gt;manageable</title>
<path fill="none" stroke="black" d="M716.878,-56.0731C633.005,-61.4772 456.973,-76.3869 406,-108.55 386.09,-121.113 370.544,-142.979 360.419,-160.525"/>
<polygon fill="black" stroke="black" points="357.104,-159.292 355.359,-169.743 363.24,-162.661 357.104,-159.292"/>
<text text-anchor="middle" x="551" y="-81.95" font-family="Times,serif" font-size="12.00">manage (via API)</text>
</g>
<!-- inspect failed&#45;&gt;inspecting -->
<g id="edge36" class="edge"><title>inspect failed&#45;&gt;inspecting</title>
<path fill="none" stroke="black" d="M734.727,-39.2587C723.645,-34.1997 710.52,-29.1276 698,-26.55 665.054,-19.7673 627.033,-19.7478 598.051,-21.3024"/>
<polygon fill="black" stroke="black" points="597.573,-17.8252 587.809,-21.9367 598.006,-24.8118 597.573,-17.8252"/>
<text text-anchor="middle" x="655" y="-29.95" font-family="Times,serif" font-size="12.00">inspect (via API)</text>
</g>
<!-- adopt failed&#45;&gt;manageable -->
<g id="edge40" class="edge"><title>adopt failed&#45;&gt;manageable</title>
<path fill="none" stroke="black" d="M732.005,-418.332C651.178,-385.257 433.099,-294.955 406,-272.55 386.665,-256.564 370.867,-232.724 360.501,-214.356"/>
<polygon fill="black" stroke="black" points="363.439,-212.432 355.586,-205.32 357.29,-215.777 363.439,-212.432"/>
<text text-anchor="middle" x="551" y="-361.95" font-family="Times,serif" font-size="12.00">manage (via API)</text>
</g>
<!-- adopt failed&#45;&gt;adopting -->
<g id="edge39" class="edge"><title>adopt failed&#45;&gt;adopting</title>
<path fill="none" stroke="black" d="M728.401,-420.602C718.68,-418.147 707.995,-415.85 698,-414.55 663.074,-410.007 623.054,-409.806 593.757,-410.573"/>
<polygon fill="black" stroke="black" points="593.364,-407.083 583.478,-410.892 593.582,-414.08 593.364,-407.083"/>
<text text-anchor="middle" x="655" y="-417.95" font-family="Times,serif" font-size="12.00">adopt (via API)</text>
</g>
</g>
</svg>
